# xmcd
#
# Track frame offsets:
#	150
#	13175
#	33065
#	52260
#	67867
#	81980
#	95235
#	106757
#	119370
#	133945
#	147697
#	162400
#	174710
#	191710
#	201380
#	212192
#
# Disc length: 2989 seconds
#
# Revision: 0
# Processed by: cddbd v1.5.2PL0 Copyright (c) Steve Scherf et al.
# Submitted via: EasyCDDAExtractor 16.0.8.2
#
DISCID=fa0bab10
DTITLE=Βάνου Τζένη - Αν σ' αρνηθώ αγάπη μου-Τ. Βάνου 1
DYEAR=1998
DGENRE=Ελαφρολαϊκή
TTITLE0=Αν σ' αρνηθώ αγάπη μου
TTITLE1=Εδώ τελειώνει ο ουρανός
TTITLE2=Τι κρίμα
TTITLE3=Ξύπνα αγάπη μου
TTITLE4=Θα 'ρθείς και θα με βρεις
TTITLE5=Απόψε
TTITLE6=Η νύχτα απόψε με τυλίγει
TTITLE7=Σαν... (Τραγούδι χωρίς τέλος)
TTITLE8=Ανεμώνη
TTITLE9=Μικρή μου σελήνη
TTITLE10=Μπροστά στην αγάπη σου
TTITLE11=Το βαλς της μοναξιάς
TTITLE12=Το ποτάμι
TTITLE13=Το κρασί
TTITLE14=Νύχτα, βασίλισσά μου
TTITLE15=Ώπα! ώπα!
EXTD=
EXTT0=
EXTT1=
EXTT2=
EXTT3=
EXTT4=
EXTT5=
EXTT6=
EXTT7=
EXTT8=
EXTT9=
EXTT10=
EXTT11=
EXTT12=
EXTT13=
EXTT14=
EXTT15=
PLAYORDER=
